<svg width="16" height="16" xmlns="http://www.w3.org/2000/svg">
  <!-- Created with Method Draw - http://github.com/duopixel/Method-Draw/ -->
  <g>
    <title>background</title>
    <rect
      fill="transparent"
      id="canvas_background"
      height="18"
      width="18"
      y="-1"
      x="-1"
    />
    <g
      display="none"
      overflow="visible"
      y="0"
      x="0"
      height="100%"
      width="100%"
      id="canvasGrid"
    >
      <rect
        fill="url(#gridpattern)"
        stroke-width="0"
        y="0"
        x="0"
        height="100%"
        width="100%"
      />
    </g>
  </g>
  <g>
    <title>Layer 1</title>
    <path
      d="m6.5,6.4375c0,0 0,0 0,0c-1,0 -2,0 -2,0c0,0 -1,0 -1,0c0,0 0,1 0,1c0,0 0,1 0,1c0,0 0.458804,-0.306563 1,1c0.382683,0.92388 1,2 2,3c0,0 1,0 1,0c0,0 1,0 1,0c1,0 0.693437,-0.458804 2,-1c0.92388,-0.382684 1,-1 2,-1c0,0 0,0 0,-1c0,0 0,0 0,-1c0,0 -1,-1 -1,-2c0,0 -1,-1 -1,-1c0,0 -0.292893,-0.707107 -1,0c-0.707107,0.707107 -1,1 -1,1c-2,0 -3,1 -3,1c-2,0 -2,0 -3,0c0,0 0,0 0,0c0,1 0,1 0,1c0,0 -0.707107,1.292893 0,2c0.707107,0.707107 1,1 2,2c0,0 0,0 0,0c1,0 1,0 1,0c2,-1 3,-2 4,-3c0,0 1,-1 2,-2c0,0 1,0 1,-1c0,0 0,0 0,0c1,-1 1,-1 1,-2c0,-1 0,-1 0,-1c0,0 0,0 -1,0c0,0 0,0 -1,0c0,0 -1,0 -2,1c0,0 -1.292893,-0.707107 -2,0c-0.707107,0.707107 0,1 0,1c-1,0 -1.292893,-0.707107 -2,0c-0.707107,0.707107 0,1 0,1c0,0 0,0 0,1c0,0 0,0 0,1c0,1 0,2 6,1c0,0 1,-1 1,-1c0,0 0,-1 0,-2c0,0 0,-1 0,-1c-1,0 -1,0 -1,0c-1,0 -1,0 -1,0c-1,0 -1,0 -2,0c0,0 -1,-1 -1,-1c-1,0 -1,0 -1,0c0,0 0,0 -1,0c-1,0 -1,0 -2,0c0,0 0,0 -1,0c0,0 0,0 0,0c0,1 0,1 0,1c0,0 0,1 0,1c0,0 0,1 0,2c0,1 0,2 0,2c1,1 1,1 1,1c0,0 1,0 2,1c0,0 1,1 1,1c0,0 1,0 1,0c0,0 0,0 1,0c0,0 0,0 0,0c1,-1 1,-1 1,-1c0,-1 0,-1 0,-1c0,0 1,0 1,-1l0,0"
      id="svg_1"
      stroke-width="3"
      stroke="#000"
      fill="none"
    />
  </g>
</svg>
