<svg width="16" height="16" xmlns="http://www.w3.org/2000/svg">
  <!-- Created with Method Draw - http://github.com/duopixel/Method-Draw/ -->
  <g>
    <title>background</title>
    <rect
      fill="#fff"
      id="canvas_background"
      height="18"
      width="18"
      y="-1"
      x="-1"
    />
    <g
      display="none"
      overflow="visible"
      y="0"
      x="0"
      height="100%"
      width="100%"
      id="canvasGrid"
    >
      <rect
        fill="url(#gridpattern)"
        stroke-width="0"
        y="0"
        x="0"
        height="100%"
        width="100%"
      />
    </g>
  </g>
  <g>
    <title>Layer 1</title>
    <path
      d="m3.5,12.4375c0,0 2,0 3,0c1,0 1,0 2,0c0,0 0,1 -2,1c0,0 -1,0 -1,0c0,-3 0,-3 0,-3c1,0 1,0 1,0c0,1 0,1 -1,1c0,0 -1,0 -1,-1c0,0 -0.525731,-1.149349 0,-2c1.17557,-1.902113 3,-2 4,-2c1,0 1,1 1,1c-1,2 -1.693437,2.458804 -3,3c-0.92388,0.382684 -1,0 -1,-1c0,0 -0.382683,-1.07612 0,-2c0.541196,-1.306563 3,-1 5,-1c1,0 2,0 2,0c0,1 0.707107,1.292893 0,2c-0.707107,0.707107 -3,1 -3,1c0,0 0,-2 0,-3c0,0 0,0 0,-1c0,0 1.486257,-0.176251 2,2c0.229753,0.973249 0.382684,3.07612 0,4c-0.541196,1.306563 -3,1 -5,1c-2,0 -2.540494,-1.053502 -3,-3c-0.513743,-2.176251 -1,-3 -1,-5c0,0 -0.176251,-1.486257 2,-2c1.946498,-0.459506 5.310006,-0.662508 8,1c1.203002,0.743496 2.617316,3.07612 3,4c0.541197,1.306563 1.525732,1.149349 1,2c-1.17557,1.902113 -3,1 -4,1c-1,0 -2,0 -2,0c0,0 0,-1 0,-3c0,-1 0,-2 0,-2c0,0 0,0 -1,0c0,0 0,0 0,1l0,0"
      id="svg_2"
      stroke-width="4"
      stroke="#000"
      fill="none"
    />
  </g>
</svg>
